<svg width="12" height="12" viewBox="0 0 12 12" fill="none" xmlns="http://www.w3.org/2000/svg">
<path d="M8.21132 6L11.528 2.68329C11.935 2.27628 11.935 1.61638 11.528 1.20904L10.7909 0.471924C10.3839 0.064916 9.72401 0.064916 9.31667 0.471924L5.99996 3.78864L2.68325 0.471924C2.27624 0.064916 1.61634 0.064916 1.209 0.471924L0.471882 1.20904C0.0648741 1.61605 0.0648741 2.27595 0.471882 2.68329L3.7886 6L0.471882 9.31672C0.0648741 9.72372 0.0648741 10.3836 0.471882 10.791L1.209 11.5281C1.61601 11.9351 2.27624 11.9351 2.68325 11.5281L5.99996 8.21137L9.31667 11.5281C9.72368 11.9351 10.3839 11.9351 10.7909 11.5281L11.528 10.791C11.935 10.384 11.935 9.72406 11.528 9.31672L8.21132 6Z" fill="#70767D"/>
</svg>
